# xmcd
#
# Track frame offsets: 
# 150
# 19792
# 39237
# 60255
# 78120
# 94337
# 108975
# 126835
# 144662
# 156092
# 172015
# 186517
# 203287
# 221152
# 237085
# 255480
# 276970
# 293335
# 309627
# 333942
#
# Disc length: 4761 seconds
# Submitted via: tkcNetwork 1.0
# Revision: 0
# Processed by: cddbd v1.5.2PL0 Copyright (c) Steve Scherf et al.
#
DISCID=12129714
DTITLE=Various Artist - Global Sounds - Journey Into Music CD1
DYEAR=2001
DGENRE=Other
TTITLE0=Compay Segundo - Chan Chan
TTITLE1=Khaled - Aïcha
TTITLE2=Orquestra Aragon - Son Al Son
TTITLE3=Mari Boine Band - Eallin (Life)
TTITLE4=Dulce Pontes - Fado-Mãe
TTITLE5=Laïs - Le Renard Et La Belette
TTITLE6=Kodo - Yumi-Ga-Hama
TTITLE7=Anoushka Shankar - Hamsadhwani Tabla Duet
TTITLE8=Vieja Trova Santiaguera - Fiebre De Ti
TTITLE9=Al Turath Ensemble - Ya Ghusayna-I-Bani
TTITLE10=Andreas Vollenweider - Elle Chelle
TTITLE11=Oceania - Pukaea - The Trumpet
TTITLE12=Maria Dolores Pradera - El Talismán
TTITLE13=Värttinã - Emoton
TTITLE14=Ana Gabriel - Voy A Ser
TTITLE15=Noa - Blue Touches Blue
TTITLE16=Las Damas Faez - Rosina Y Virgina
TTITLE17=EOS Guitar Quartet - A Furiosa
TTITLE18=Alejandro Sanz - Y, ¿Si Fuera Ella_
TTITLE19=The Chieftains - Emigration Theme
EXTD=
EXTT0=
EXTT1=
EXTT2=
EXTT3=
EXTT4=
EXTT5=
EXTT6=
EXTT7=
EXTT8=
EXTT9=
EXTT10=
EXTT11=
EXTT12=
EXTT13=
EXTT14=
EXTT15=
EXTT16=
EXTT17=
EXTT18=
EXTT19=
PLAYORDER=
